<?xml version="1.0" encoding="UTF-8"?>
<svg version="1.1" xmlns="http://www.w3.org/2000/svg" width="480" height="480">
<path d="M0 0 C0.84917999 -0.00983917 1.69835999 -0.01967834 2.57327271 -0.02981567 C21.65984146 -0.20528087 40.15059273 -0.06739068 58.84765625 4.23828125 C59.8752002 4.47434082 60.90274414 4.71040039 61.96142578 4.95361328 C92.2720848 12.19177065 120.01564517 25.49738586 144.84765625 44.23828125 C145.440625 44.68010742 146.03359375 45.12193359 146.64453125 45.57714844 C153.49807746 50.72123788 153.49807746 50.72123788 155.84765625 53.23828125 C155.84765625 57.77510661 154.99885184 58.56529393 151.95748901 61.68167114 C151.3840274 62.24860687 150.8105658 62.8155426 150.21972656 63.3996582 C149.62143036 64.00656998 149.02313416 64.61348175 148.40670776 65.23878479 C146.42318068 67.24504326 144.42522538 69.23617534 142.42578125 71.2265625 C141.04479267 72.61278289 139.66432651 73.9995239 138.28436279 75.38676453 C135.38891172 78.29263271 132.48607744 81.19087259 129.578125 84.08422852 C125.84561483 87.79953677 122.13385158 91.53482155 118.42757034 95.27627277 C115.58142409 98.14433758 112.7237253 101.00066388 109.86244965 103.85362816 C108.4886637 105.22659179 107.11874045 106.6034314 105.75272369 107.98412514 C103.84460049 109.90959356 101.92132746 111.81850633 99.99316406 113.72387695 C99.42779938 114.30093384 98.86243469 114.87799072 98.27993774 115.47253418 C96.68243408 117.0316925 96.68243408 117.0316925 93.84765625 119.23828125 C89.83272482 118.73792626 87.30548799 116.54908823 84.09765625 114.17578125 C55.85137161 94.05862007 21.38563481 88.03890344 -12.45068359 93.6171875 C-34.97614012 97.77046031 -54.53359614 107.81648382 -72.15234375 122.23828125 C-72.92578125 122.86863281 -73.69921875 123.49898438 -74.49609375 124.1484375 C-97.32594346 143.42209908 -113.41806133 174.56467119 -116.15234375 204.23828125 C-118.29356209 240.19449906 -111.44957592 273.84809567 -87.75390625 302.09765625 C-85.59502214 304.52191814 -83.39835717 306.89480768 -81.15234375 309.23828125 C-80.34796875 310.08390625 -79.54359375 310.92953125 -78.71484375 311.80078125 C-77.86921875 312.60515625 -77.02359375 313.40953125 -76.15234375 314.23828125 C-75.48203125 314.89183594 -74.81171875 315.54539062 -74.12109375 316.21875 C-49.93891786 339.02693862 -16.25601808 350.06275352 16.66455078 349.16113281 C51.55025947 347.57199164 83.05794697 336.85330649 107.0859375 310.8125 C118.30472975 297.50243774 124.66492946 281.96918841 128.84765625 265.23828125 C90.23765625 265.23828125 51.62765625 265.23828125 11.84765625 265.23828125 C11.84765625 237.18828125 11.84765625 209.13828125 11.84765625 180.23828125 C79.82765625 180.23828125 147.80765625 180.23828125 217.84765625 180.23828125 C221.95254045 202.13099698 221.95254045 202.13099698 222.00878906 207.43164062 C222.02298134 208.55201469 222.02298134 208.55201469 222.03746033 209.69502258 C222.04405418 210.87659187 222.04405418 210.87659187 222.05078125 212.08203125 C222.05779556 212.9201384 222.06480988 213.75824554 222.07203674 214.62174988 C222.0895178 217.32731513 222.09589348 220.03266152 222.09765625 222.73828125 C222.09833099 223.66178375 222.09900574 224.58528625 222.09970093 225.53677368 C222.08330862 239.64380771 221.56607045 253.35724495 218.84765625 267.23828125 C218.68136719 268.12322266 218.51507813 269.00816406 218.34375 269.91992188 C210.22692229 312.09736365 191.37334131 349.23847975 161.84765625 380.23828125 C160.70103516 381.48158203 160.70103516 381.48158203 159.53125 382.75 C133.10073811 410.52216224 95.75283779 427.8807312 58.84765625 436.23828125 C57.91550293 436.45000977 56.98334961 436.66173828 56.02294922 436.87988281 C28.80687385 442.73011056 -2.91652908 443.17002567 -30.15234375 437.23828125 C-30.97750488 437.07199219 -31.80266602 436.90570313 -32.65283203 436.734375 C-88.9670418 425.30001769 -139.67464061 391.89003221 -171.64501953 344.00244141 C-178.23376862 333.79398857 -184.01851604 323.24516129 -189.15234375 312.23828125 C-189.673125 311.13742187 -190.19390625 310.0365625 -190.73046875 308.90234375 C-201.49810649 285.04352539 -208.21232086 258.14459006 -208.35546875 231.91015625 C-208.36248306 231.04712387 -208.36949738 230.18409149 -208.37672424 229.29490662 C-208.39413126 226.52597782 -208.40057619 223.75726275 -208.40234375 220.98828125 C-208.40301849 220.04320709 -208.40369324 219.09813293 -208.40438843 218.12442017 C-208.38901119 204.59403538 -208.0273505 191.50556662 -205.15234375 178.23828125 C-204.99137207 177.42375488 -204.83040039 176.60922852 -204.66455078 175.77001953 C-194.77764537 125.99358218 -167.11565068 79.6688821 -127.15234375 48.23828125 C-126.1778125 47.44679687 -125.20328125 46.6553125 -124.19921875 45.83984375 C-110.67176224 35.06546256 -95.78615236 26.56271641 -80.15234375 19.23828125 C-79.09789062 18.72910156 -78.0434375 18.21992187 -76.95703125 17.6953125 C-53.21788345 6.81730005 -26.16065543 0.25120795 0 0 Z " fill="#34A753" transform="translate(228.15234375,19.76171875)"/>
<path d="M0 0 C0.84917999 -0.00983917 1.69835999 -0.01967834 2.57327271 -0.02981567 C21.65984146 -0.20528087 40.15059273 -0.06739068 58.84765625 4.23828125 C59.8752002 4.47434082 60.90274414 4.71040039 61.96142578 4.95361328 C92.2720848 12.19177065 120.01564517 25.49738586 144.84765625 44.23828125 C145.440625 44.68010742 146.03359375 45.12193359 146.64453125 45.57714844 C153.49807746 50.72123788 153.49807746 50.72123788 155.84765625 53.23828125 C155.84765625 57.77510661 154.99885184 58.56529393 151.95748901 61.68167114 C151.3840274 62.24860687 150.8105658 62.8155426 150.21972656 63.3996582 C149.62143036 64.00656998 149.02313416 64.61348175 148.40670776 65.23878479 C146.42318068 67.24504326 144.42522538 69.23617534 142.42578125 71.2265625 C141.04479267 72.61278289 139.66432651 73.9995239 138.28436279 75.38676453 C135.38891172 78.29263271 132.48607744 81.19087259 129.578125 84.08422852 C125.84561483 87.79953677 122.13385158 91.53482155 118.42757034 95.27627277 C115.58142409 98.14433758 112.7237253 101.00066388 109.86244965 103.85362816 C108.4886637 105.22659179 107.11874045 106.6034314 105.75272369 107.98412514 C103.84460049 109.90959356 101.92132746 111.81850633 99.99316406 113.72387695 C99.42779938 114.30093384 98.86243469 114.87799072 98.27993774 115.47253418 C96.68243408 117.0316925 96.68243408 117.0316925 93.84765625 119.23828125 C89.83272482 118.73792626 87.30548799 116.54908823 84.09765625 114.17578125 C55.85137161 94.05862007 21.38563481 88.03890344 -12.45068359 93.6171875 C-34.97614012 97.77046031 -54.53359614 107.81648382 -72.15234375 122.23828125 C-72.92578125 122.86863281 -73.69921875 123.49898438 -74.49609375 124.1484375 C-97.32594346 143.42209908 -113.41806133 174.56467119 -116.15234375 204.23828125 C-117.20620154 221.93509409 -116.63573262 239.0069433 -112.15234375 256.23828125 C-111.80577414 257.90224591 -111.46537508 259.56768247 -111.15234375 261.23828125 C-112.09851563 261.94210937 -113.0446875 262.6459375 -114.01953125 263.37109375 C-121.37351719 268.85642847 -128.67630581 274.39778016 -135.90234375 280.05078125 C-143.08199087 285.6653742 -150.34410204 291.15930227 -157.65527344 296.60131836 C-161.90359449 299.7717754 -166.11639369 302.97717675 -170.27734375 306.26171875 C-171.0971875 306.90818359 -171.91703125 307.55464844 -172.76171875 308.22070312 C-174.31846007 309.45312334 -175.8707939 310.69113814 -177.41796875 311.93554688 C-178.46210938 312.7621582 -178.46210938 312.7621582 -179.52734375 313.60546875 C-180.13320312 314.09128418 -180.7390625 314.57709961 -181.36328125 315.07763672 C-183.28763682 316.32605189 -184.9110301 316.81433233 -187.15234375 317.23828125 C-199.12981122 290.29675702 -208.1931324 261.6612206 -208.35546875 231.91015625 C-208.36248306 231.04712387 -208.36949738 230.18409149 -208.37672424 229.29490662 C-208.39413126 226.52597782 -208.40057619 223.75726275 -208.40234375 220.98828125 C-208.40301849 220.04320709 -208.40369324 219.09813293 -208.40438843 218.12442017 C-208.38901119 204.59403538 -208.0273505 191.50556662 -205.15234375 178.23828125 C-204.99137207 177.42375488 -204.83040039 176.60922852 -204.66455078 175.77001953 C-194.77764537 125.99358218 -167.11565068 79.6688821 -127.15234375 48.23828125 C-126.1778125 47.44679687 -125.20328125 46.6553125 -124.19921875 45.83984375 C-110.67176224 35.06546256 -95.78615236 26.56271641 -80.15234375 19.23828125 C-79.09789062 18.72910156 -78.0434375 18.21992187 -76.95703125 17.6953125 C-53.21788345 6.81730005 -26.16065543 0.25120795 0 0 Z " fill="#EA4334" transform="translate(228.15234375,19.76171875)"/>
<path d="M0 0 C67.98 0 135.96 0 206 0 C210.1048842 21.89271573 210.1048842 21.89271573 210.16113281 27.19335938 C210.17059433 27.94027542 210.18005585 28.68719147 210.18980408 29.45674133 C210.19639793 30.63831062 210.19639793 30.63831062 210.203125 31.84375 C210.21013931 32.68185715 210.21715363 33.51996429 210.22438049 34.38346863 C210.24186155 37.08903388 210.24823723 39.79438027 210.25 42.5 C210.25067474 43.4235025 210.25134949 44.347005 210.25204468 45.29849243 C210.23565237 59.40552646 209.7184142 73.1189637 207 87 C206.75056641 88.32741211 206.75056641 88.32741211 206.49609375 89.68164062 C198.39078493 131.79922684 179.57751294 169.08643118 150 200 C149.15179688 200.95777344 148.30359375 201.91554688 147.4296875 202.90234375 C146.62789062 203.59457031 145.82609375 204.28679687 145 205 C140.45047309 204.48532445 137.45775076 201.38595553 134.0625 198.5625 C132.71306771 197.46122407 131.36279289 196.36097979 130.01171875 195.26171875 C129.3367334 194.7104834 128.66174805 194.15924805 127.96630859 193.59130859 C125.13951579 191.30362105 122.26436199 189.08281666 119.375 186.875 C118.84358398 186.46805908 118.31216797 186.06111816 117.76464844 185.6418457 C116.17709804 184.42702663 114.58855419 183.21350617 113 182 C103.37417954 174.61816062 93.79129542 167.18226654 84.22070312 159.72900391 C80.48164052 156.81782961 76.74079027 153.90895375 73 151 C76.08077429 147.71384075 79.32697736 144.90500554 82.875 142.125 C102.10619233 126.80812116 110.08288665 108.51818538 117 85 C78.39 85 39.78 85 0 85 C0 56.95 0 28.9 0 0 Z " fill="#4185F3" transform="translate(240,200)"/>
<path d="M0 0 C3.2513033 0.60590835 5.19347605 1.68115293 7.765625 3.73828125 C8.48234375 4.30482422 9.1990625 4.87136719 9.9375 5.45507812 C11.0821875 6.37450195 11.0821875 6.37450195 12.25 7.3125 C13.8792625 8.60145687 15.50948858 9.88919659 17.140625 11.17578125 C17.95853516 11.82240723 18.77644531 12.4690332 19.61914062 13.13525391 C23.03810602 15.8130695 26.51372146 18.41080904 30 21 C35.72334809 25.26253842 41.37735208 29.6055421 47 34 C54.7131763 40.02795151 62.50914294 45.9365256 70.36279297 51.7800293 C72.24497859 53.18254668 74.1227361 54.59090398 76 56 C75.84853516 56.58974609 75.69707031 57.17949219 75.54101562 57.78710938 C69.32777601 82.8121268 68.47840254 107.93506517 75 133 C75.34656961 134.66396466 75.68696867 136.32940122 76 138 C75.05382812 138.70382812 74.10765625 139.40765625 73.1328125 140.1328125 C65.77882656 145.61814722 58.47603794 151.15949891 51.25 156.8125 C44.07035288 162.42709295 36.80824171 167.92102102 29.49707031 173.36303711 C25.24874926 176.53349415 21.03595006 179.7388955 16.875 183.0234375 C16.05515625 183.66990234 15.2353125 184.31636719 14.390625 184.98242188 C12.83388368 186.21484209 11.28154985 187.45285689 9.734375 188.69726562 C9.03828125 189.24833984 8.3421875 189.79941406 7.625 190.3671875 C6.71621094 191.09591064 6.71621094 191.09591064 5.7890625 191.83935547 C3.86470693 193.08777064 2.24131365 193.57605108 0 194 C-11.97746747 167.05847577 -21.04078865 138.42293935 -21.203125 108.671875 C-21.21364647 107.37732643 -21.21364647 107.37732643 -21.22438049 106.05662537 C-21.24178751 103.28769657 -21.24823244 100.5189815 -21.25 97.75 C-21.25067474 96.80492584 -21.25134949 95.85985168 -21.25204468 94.88613892 C-21.23666744 81.35575413 -20.87500675 68.26728537 -18 55 C-17.83902832 54.18547363 -17.67805664 53.37094727 -17.51220703 52.53173828 C-13.90970132 34.39462738 -7.75314227 16.77521988 0 0 Z " fill="#FABB05" transform="translate(41,143)"/>
</svg>
